<svg width="68" height="27" viewBox="0 0 68 27" fill="none" xmlns="http://www.w3.org/2000/svg">
<g filter="url(#filter0_d_6_281)">
<path d="M28.6765 14.4979C28.6765 17.3281 26.4535 19.4137 23.7255 19.4137C20.9974 19.4137 18.7744 17.3281 18.7744 14.4979C18.7744 11.6477 20.9974 9.58203 23.7255 9.58203C26.4535 9.58203 28.6765 11.6477 28.6765 14.4979ZM26.5092 14.4979C26.5092 12.7292 25.2208 11.5191 23.7255 11.5191C22.2301 11.5191 20.9417 12.7292 20.9417 14.4979C20.9417 16.2488 22.2301 17.4766 23.7255 17.4766C25.2208 17.4766 26.5092 16.2465 26.5092 14.4979Z" fill="#EA4335"/>
<path d="M39.6521 14.4979C39.6521 17.3281 37.4291 19.4137 34.701 19.4137C31.973 19.4137 29.75 17.3281 29.75 14.4979C29.75 11.6499 31.973 9.58203 34.701 9.58203C37.4291 9.58203 39.6521 11.6477 39.6521 14.4979ZM37.4848 14.4979C37.4848 12.7292 36.1964 11.5191 34.701 11.5191C33.2057 11.5191 31.9173 12.7292 31.9173 14.4979C31.9173 16.2488 33.2057 17.4766 34.701 17.4766C36.1964 17.4766 37.4848 16.2465 37.4848 14.4979Z" fill="#FBBC05"/>
<path d="M49.9615 9.87902V18.7044C49.9615 22.3348 47.812 23.8175 45.2708 23.8175C42.8787 23.8175 41.439 22.224 40.8961 20.9208L42.783 20.1384C43.1191 20.9385 43.9424 21.8827 45.2686 21.8827C46.8952 21.8827 47.9032 20.8831 47.9032 19.0014V18.2944H47.8276C47.3425 18.8906 46.4079 19.4115 45.2285 19.4115C42.7608 19.4115 40.5 17.2705 40.5 14.5156C40.5 11.7407 42.7608 9.58203 45.2285 9.58203C46.4057 9.58203 47.3402 10.1029 47.8276 10.6813H47.9032V9.88124H49.9615V9.87902ZM48.0567 14.5156C48.0567 12.7846 46.8974 11.5191 45.4221 11.5191C43.9268 11.5191 42.674 12.7846 42.674 14.5156C42.674 16.2288 43.9268 17.4766 45.4221 17.4766C46.8974 17.4766 48.0567 16.2288 48.0567 14.5156Z" fill="#4285F4"/>
<path d="M53.984 4.7063V19.1124H51.8701V4.7063H53.984Z" fill="#34A853"/>
<path d="M62.8276 16.116L64.5098 17.2331C63.9668 18.0332 62.6584 19.4117 60.3976 19.4117C57.5939 19.4117 55.5 17.253 55.5 14.4959C55.5 11.5726 57.6117 9.58008 60.1551 9.58008C62.7163 9.58008 63.9691 11.6102 64.3785 12.7073L64.6033 13.2658L58.0056 15.9875C58.5107 16.9738 59.2962 17.4769 60.3976 17.4769C61.5013 17.4769 62.2668 16.9361 62.8276 16.116ZM57.6495 14.3474L62.0599 12.5234C61.8173 11.9094 61.0875 11.4817 60.2285 11.4817C59.1271 11.4817 57.5939 12.4502 57.6495 14.3474Z" fill="#EA4335"/>
<path d="M10.7726 13.2192V11.1336H17.8287C17.8977 11.4971 17.9333 11.927 17.9333 12.3925C17.9333 13.9572 17.5038 15.8921 16.1197 17.2706C14.7735 18.6669 13.0534 19.4116 10.7748 19.4116C6.5514 19.4116 3 15.9851 3 11.7785C3 7.57195 6.5514 4.14551 10.7748 4.14551C13.1113 4.14551 14.7757 5.05864 16.0263 6.2488L14.5487 7.72045C13.652 6.88268 12.437 6.23107 10.7726 6.23107C7.68848 6.23107 5.27637 8.70671 5.27637 11.7785C5.27637 14.8504 7.68848 17.326 10.7726 17.326C12.773 17.326 13.9123 16.5259 14.6422 15.799C15.2341 15.2094 15.6235 14.3672 15.777 13.2169L10.7726 13.2192Z" fill="#4285F4"/>
</g>
<defs>
<filter id="filter0_d_6_281" x="0" y="1.14551" width="67.603" height="25.6721" filterUnits="userSpaceOnUse" color-interpolation-filters="sRGB">
<feFlood flood-opacity="0" result="BackgroundImageFix"/>
<feColorMatrix in="SourceAlpha" type="matrix" values="0 0 0 0 0 0 0 0 0 0 0 0 0 0 0 0 0 0 127 0" result="hardAlpha"/>
<feOffset/>
<feGaussianBlur stdDeviation="1.5"/>
<feColorMatrix type="matrix" values="0 0 0 0 1 0 0 0 0 1 0 0 0 0 1 0 0 0 1 0"/>
<feBlend mode="normal" in2="BackgroundImageFix" result="effect1_dropShadow_6_281"/>
<feBlend mode="normal" in="SourceGraphic" in2="effect1_dropShadow_6_281" result="shape"/>
</filter>
</defs>
</svg>
