<svg width="25" height="73" viewBox="0 0 25 73" fill="none" xmlns="http://www.w3.org/2000/svg">
<g clip-path="url(#clip0_6_31)">
<path fill-rule="evenodd" clip-rule="evenodd" d="M12.5 12.2251C14.0315 12.2251 15.2778 13.4714 15.2778 15.0029C15.2778 16.5344 14.0315 17.7807 12.5 17.7807C10.9685 17.7807 9.7222 16.5344 9.7222 15.0029C9.7222 13.4714 10.9685 12.2251 12.5 12.2251ZM12.5 5.74365C7.39443 5.74365 3.24072 9.89736 3.24072 15.0029C3.24072 21.9001 11.6296 27.5724 11.9861 27.8103C12.1416 27.914 12.3213 27.9659 12.5 27.9659C12.6787 27.9659 12.8583 27.914 13.0139 27.8103C13.3704 27.5724 21.7592 21.9001 21.7592 15.0029C21.7592 9.89736 17.6055 5.74365 12.5 5.74365Z" stroke="#D1ADAD" stroke-width="1.85185" stroke-linecap="round" stroke-linejoin="round"/>
</g>
<defs>
<clipPath id="clip0_6_31">
<rect width="25" height="25" fill="white" transform="translate(0 4.81763)"/>
</clipPath>
</defs>
</svg>
