<svg width="24" height="51" viewBox="0 0 24 51" fill="none" xmlns="http://www.w3.org/2000/svg">
<path d="M17.6814 18.2141L17.6824 18.2145C18.4868 18.5161 19.3908 18.7169 20.2941 18.8173C21.0829 18.916 21.6707 19.2106 22.1616 19.7997C22.6523 20.3886 22.8505 21.0768 22.95 21.7712V24.7677C22.95 25.159 22.8522 25.5514 22.6553 25.9453C22.4571 26.3417 22.26 26.637 21.9646 26.9323C21.6722 27.2247 21.2809 27.4209 20.8879 27.5192C20.8023 27.5406 20.7218 27.5618 20.6454 27.5819C20.3596 27.6572 20.1303 27.7177 19.9 27.7177H19.8994H19.8988H19.8982H19.8977H19.8971H19.8965H19.8959H19.8953H19.8947H19.8941H19.8936H19.893H19.8924H19.8918H19.8912H19.8906H19.89H19.8895H19.8889H19.8883H19.8877H19.8871H19.8865H19.8859H19.8854H19.8848H19.8842H19.8836H19.883H19.8824H19.8818H19.8813H19.8807H19.8801H19.8795H19.8789H19.8783H19.8777H19.8771H19.8766H19.876H19.8754H19.8748H19.8742H19.8736H19.873H19.8725H19.8719H19.8713H19.8707H19.8701H19.8695H19.8689H19.8684H19.8678H19.8672H19.8666H19.866H19.8654H19.8648H19.8643H19.8637H19.8631H19.8625H19.8619H19.8613H19.8607H19.8602H19.8596H19.859H19.8584H19.8578H19.8572H19.8566H19.8561H19.8555H19.8549H19.8543H19.8537H19.8531H19.8525H19.852H19.8514H19.8508H19.8502H19.8496H19.849H19.8484H19.8479H19.8473H19.8467H19.8461H19.8455H19.8449H19.8443H19.8438H19.8432H19.8426H19.842H19.8414H19.8408H19.8402H19.8396H19.8391H19.8385H19.8379H19.8373H19.8367H19.8361H19.8355H19.835H19.8344H19.8338H19.8332H19.8326H19.832H19.8314H19.8309H19.8303H19.8297H19.8291H19.8285H19.8279H19.8273H19.8268H19.8262H19.8256H19.825H19.8244H19.8238H19.8232H19.8227H19.8221H19.8215H19.8209H19.8203H19.8197H19.8191H19.8186H19.818H19.8174H19.8168H19.8162H19.8156H19.815H19.8145H19.8139H19.8133H19.8127H19.8121H19.8115H19.8109H19.8104H19.8098H19.8092H19.8086H19.808H19.8074H19.8068H19.8062H19.8057H19.8051H19.8045H19.8039H19.8033H19.8027H19.8021H19.8016H19.801H19.8004H19.7998H19.7992H19.7986H19.798H19.7975H19.7969H19.7963H19.7957H19.7951H19.7945H19.7939H19.7934H19.7928H19.7922H19.7916H19.791H19.7904H19.7898H19.7893H19.7887H19.7881H19.7875H19.7869H19.7863H19.7857H19.7852H19.7846H19.784H19.7834H19.7828H19.7822H19.7816H19.7811H19.7805H19.7799H19.7793H19.7787H19.7781H19.7775H19.777H19.7764H19.7758H19.7752H19.7746H19.774H19.7734H19.7729H19.7723H19.7717H19.7711H19.7705H19.7699H19.7693H19.7687H19.7682H19.7676H19.767H19.7664H19.7658H19.7652H19.7646H19.7641H19.7635H19.7629H19.7623H19.7617H19.7611H19.7605H19.76H19.7594H19.7588H19.7582H19.7576H19.757H19.7564H19.7559H19.7553H19.7547H19.7541H19.7535H19.7529H19.7523H19.7518H19.7512H19.7506H19.75H19.7494H19.7488H19.7482H19.7477H19.7471H19.7465H19.7459H19.7453H19.7447H19.7441H19.7436H19.743H19.7424H19.7418H19.7412H19.7406H19.74H19.7395H19.7389H19.7383H19.7377H19.7371H19.7365H19.7359H19.7354H19.7348H19.7342H19.7336H19.733H19.7324H19.7318H19.7313H19.7307H19.7301H19.7295H19.7289H19.7283H19.7277H19.7271H19.7266H19.726H19.7254H19.7248H19.7242H19.7236H19.723H19.7225H19.7219H19.7213H19.7207H19.7201H19.7195H19.7189H19.7184H19.7178H19.7172H19.7166H19.716H19.7154H19.7148H19.7143H19.7137H19.7131H19.7125H19.7119H19.7113H19.7107H19.7102H19.7096H19.709H19.7084H19.7078H19.7072H19.7066H19.7061H19.7055H19.7049H19.7043H19.7037H19.7031H19.7025H19.702H19.7014H19.7008H19.7002H19.6996H19.699H19.6984H19.6979H19.6973H19.6967H19.6961H19.6955H19.6949H19.6943H19.6938H19.6932H19.6926H19.692H19.6914H19.6908H19.6902H19.6896H19.6891H19.6885H19.6879H19.6873H19.6867H19.6861H19.6855H19.685H19.6844H19.6838H19.6832H19.6826H19.682H19.6814H19.6809H19.6803H19.6797H19.6791H19.6785H19.6779H19.6773H19.6768H19.6762H19.6756H19.675H19.6744H19.6738H19.6732H19.6727H19.6721H19.6715H19.6709H19.6703H19.6697H19.6691H19.6686H19.668H19.6674H19.6668H19.6662H19.6656H19.665H19.6645H19.6639H19.6633H19.6627H19.6621H19.6615H19.6609H19.6604H19.6598H19.6592H19.6586H19.658H19.6574H19.6568H19.6562H19.6557H19.6551H19.6545H19.6539H19.6533H19.6527H19.6521H19.6516H19.651H19.6504H19.6498H19.6492H19.6486H19.648H19.6475H19.6469H19.6463H19.6457H19.6451H19.6445H19.6439H19.6434H19.6428H19.6422H19.6416H19.641H19.6404H19.6398H19.6393H19.6387H19.6381H19.6375H19.6369H19.6363H19.6357H19.6352H19.6346H19.634H19.6334H19.6328H19.6322H19.6316H19.6311H19.6305H19.6299H19.6293H19.6287H19.6281H19.6275H19.627H19.6264H19.6258H19.6252H19.6246H19.624H19.6234H19.6229H19.6223H19.6217H19.6211H19.6205H19.6199H19.6193H19.6187H19.6182H19.6176H19.617H19.6164H19.6158H19.6152H19.6146H19.6141H19.6135H19.6129H19.6123H19.6117H19.6111H19.6105H19.61H19.6094H19.6088H19.6082H19.6076H19.607H19.6064H19.6059H19.6053H19.6047H19.6041H19.6035H19.6029H19.6023C16.4111 27.4181 13.2199 26.3209 10.5277 24.5261L10.527 24.5256C8.0331 22.9295 5.83832 20.7347 4.24222 18.2409C2.54626 15.5473 1.34953 12.3557 1.05 9.16534C1.05 8.76314 1.05132 8.27684 1.24472 7.89004L1.24581 7.89058L1.24851 7.8798C1.34574 7.49088 1.53986 7.19852 1.83536 6.90303C2.13754 6.60085 2.42793 6.31223 2.81213 6.21618L2.81242 6.21737L2.82236 6.2124C3.21625 6.01545 3.60864 5.91768 4 5.91768H7C7.68474 5.91768 8.37342 6.21082 8.96814 6.60653C9.46024 7.10003 9.85226 7.78858 9.95039 8.47399C10.0508 9.37682 10.2514 10.2803 10.5529 11.0844C10.7493 11.6742 10.7497 12.1654 10.6507 12.7595C10.5527 13.3474 10.2587 13.8383 9.86464 14.2323L9.16464 14.9323L9.13638 14.9606L9.15773 14.9944C10.3622 16.9014 11.9676 18.4062 13.7723 19.6093L13.8064 19.632L13.8354 19.603L14.5354 18.903C14.9294 18.509 15.4203 18.215 16.0082 18.117C16.6041 18.0177 17.1936 18.019 17.6814 18.2141ZM2.95 8.96768H2.94973L2.95027 8.97282C3.25108 11.8807 4.25376 14.6884 5.85826 17.0952C7.36133 19.3999 9.26618 21.4055 11.5735 22.8101C14.075 24.411 16.8765 25.4129 19.7787 25.7157C19.8466 25.7714 19.9373 25.7663 20.0082 25.7545C20.0395 25.7493 20.0712 25.7419 20.0994 25.7354C20.1067 25.7337 20.1137 25.732 20.1205 25.7305C20.1555 25.7225 20.1815 25.7177 20.2 25.7177C20.4207 25.7177 20.5336 25.6048 20.6337 25.5047L20.6354 25.503C20.6911 25.4473 20.7192 25.3912 20.744 25.3415L20.7447 25.34C20.7697 25.2901 20.7917 25.2467 20.8354 25.203C20.8964 25.1419 20.9237 25.0544 20.9368 24.9759C20.95 24.8968 20.95 24.8184 20.95 24.7687V24.7677V21.6677V21.6607C20.95 21.3661 20.95 21.147 20.7354 20.9323C20.6812 20.8782 20.5771 20.8005 20.4618 20.7365C20.3495 20.6741 20.2174 20.6194 20.1051 20.6177C19.1061 20.4179 18.1121 20.2187 17.1186 19.8213L17.1096 19.8177H17.1H17.0988H17.0977H17.0965H17.0953H17.0941H17.093H17.0918H17.0906H17.0895H17.0883H17.0871H17.0859H17.0848H17.0836H17.0824H17.0813H17.0801H17.0789H17.0777H17.0766H17.0754H17.0742H17.073H17.0719H17.0707H17.0695H17.0684H17.0672H17.066H17.0648H17.0637H17.0625H17.0613H17.0602H17.059H17.0578H17.0566H17.0555H17.0543H17.0531H17.052H17.0508H17.0496H17.0484H17.0473H17.0461H17.0449H17.0438H17.0426H17.0414H17.0402H17.0391H17.0379H17.0367H17.0355H17.0344H17.0332H17.032H17.0309H17.0297H17.0285H17.0273H17.0262H17.025H17.0238H17.0227H17.0215H17.0203H17.0191H17.018H17.0168H17.0156H17.0145H17.0133H17.0121H17.0109H17.0098H17.0086H17.0074H17.0063H17.0051H17.0039H17.0027H17.0016H17.0004H16.9992H16.998H16.9969H16.9957H16.9945H16.9934H16.9922H16.991H16.9898H16.9887H16.9875H16.9863H16.9852H16.984H16.9828H16.9816H16.9805H16.9793H16.9781H16.977H16.9758H16.9746H16.9734H16.9723H16.9711H16.9699H16.9688H16.9676H16.9664H16.9652H16.9641H16.9629H16.9617H16.9605H16.9594H16.9582H16.957H16.9559H16.9547H16.9535H16.9523H16.9512H16.95H16.9488H16.9477H16.9465H16.9453H16.9441H16.943H16.9418H16.9406H16.9395H16.9383H16.9371H16.9359H16.9348H16.9336H16.9324H16.9313H16.9301H16.9289H16.9277H16.9266H16.9254H16.9242H16.923H16.9219H16.9207H16.9195H16.9184H16.9172H16.916H16.9148H16.9137H16.9125H16.9113H16.9102H16.909H16.9078H16.9066H16.9055H16.9043H16.9031H16.902H16.9008H16.8996H16.8984H16.8973H16.8961H16.8949H16.8938H16.8926H16.8914H16.8902H16.8891H16.8879H16.8867H16.8855H16.8844H16.8832H16.882H16.8809H16.8797H16.8785H16.8773H16.8762H16.875H16.8738H16.8727H16.8715H16.8703H16.8691H16.868H16.8668H16.8656H16.8645H16.8633H16.8621H16.8609H16.8598H16.8586H16.8574H16.8562H16.8551H16.8539H16.8527H16.8516H16.8504H16.8492H16.848H16.8469H16.8457H16.8445H16.8434H16.8422H16.841H16.8398H16.8387H16.8375H16.8363H16.8352H16.834H16.8328H16.8316H16.8305H16.8293H16.8281H16.827H16.8258H16.8246H16.8234H16.8223H16.8211H16.8199H16.8188H16.8176H16.8164H16.8152H16.8141H16.8129H16.8117H16.8105H16.8094H16.8082H16.807H16.8059H16.8047H16.8035H16.8023H16.8012H16.8H16.7988H16.7977H16.7965H16.7953H16.7941H16.793H16.7918H16.7906H16.7895H16.7883H16.7871H16.7859H16.7848H16.7836H16.7824H16.7812H16.7801H16.7789H16.7777H16.7766H16.7754H16.7742H16.773H16.7719H16.7707H16.7695H16.7684H16.7672H16.766H16.7648H16.7637H16.7625H16.7613H16.7602H16.759H16.7578H16.7566H16.7555H16.7543H16.7531H16.752H16.7508H16.7496H16.7484H16.7473H16.7461H16.7449H16.7438H16.7426H16.7414H16.7402H16.7391H16.7379H16.7367H16.7355H16.7344H16.7332H16.732H16.7309H16.7297H16.7285H16.7273H16.7262H16.725H16.7238H16.7227H16.7215H16.7203H16.7191H16.718H16.7168H16.7156H16.7145H16.7133H16.7121H16.7109H16.7098H16.7086H16.7074H16.7063H16.7051H16.7039H16.7027H16.7016H16.7004H16.6992H16.698H16.6969H16.6957H16.6945H16.6934H16.6922H16.691H16.6898H16.6887H16.6875H16.6863H16.6852H16.684H16.6828H16.6816H16.6805H16.6793H16.6781H16.677H16.6758H16.6746H16.6734H16.6723H16.6711H16.6699H16.6687H16.6676H16.6664H16.6652H16.6641H16.6629H16.6617H16.6605H16.6594H16.6582H16.657H16.6559H16.6547H16.6535H16.6523H16.6512H16.65H16.6488H16.6477H16.6465H16.6453H16.6441H16.643H16.6418H16.6406H16.6395H16.6383H16.6371H16.6359H16.6348H16.6336H16.6324H16.6313H16.6301H16.6289H16.6277H16.6266H16.6254H16.6242H16.623H16.6219H16.6207H16.6195H16.6184H16.6172H16.616H16.6148H16.6137H16.6125H16.6113H16.6102H16.609H16.6078H16.6066H16.6055H16.6043H16.6031H16.602H16.6008H16.5996H16.5984H16.5973H16.5961H16.5949H16.5938H16.5926H16.5914H16.5902H16.5891H16.5879H16.5867H16.5855H16.5844H16.5832H16.582H16.5809H16.5797H16.5785H16.5773H16.5762H16.575H16.5738H16.5727H16.5715H16.5703H16.5691H16.568H16.5668H16.5656H16.5645H16.5633H16.5621H16.5609H16.5598H16.5586H16.5574H16.5562H16.5551H16.5539H16.5527H16.5516H16.5504H16.5492H16.548H16.5469H16.5457H16.5445H16.5434H16.5422H16.541H16.5398H16.5387H16.5375H16.5363H16.5352H16.534H16.5328H16.5316H16.5305H16.5293H16.5281H16.527H16.5258H16.5246H16.5234H16.5223H16.5211H16.5199H16.5188H16.5176H16.5164H16.5152H16.5141H16.5129H16.5117H16.5105H16.5094H16.5082H16.507H16.5059H16.5047H16.5035H16.5023H16.5012H16.5H16.4882L16.4776 19.823L16.4769 19.8233C16.3774 19.8731 16.2764 19.9236 16.1877 19.9743C16.0994 20.0247 16.0196 20.0774 15.9646 20.1323L14.6646 21.4323L14.6643 21.432L14.66 21.4377C14.3803 21.8106 13.911 21.8169 13.5233 21.6234C10.8322 20.1282 8.63951 17.9354 7.14424 15.2443C6.95501 14.8648 7.05001 14.3884 7.33536 14.103L8.52975 12.9086C8.74012 12.7999 8.84605 12.5894 8.84989 12.3795C8.95156 12.1692 8.95001 11.9566 8.84524 11.7464C8.44787 10.8519 8.14966 9.75862 8.05 8.76516C8.04972 8.61042 8.02368 8.4791 7.97069 8.35987C7.91751 8.24021 7.83831 8.13527 7.73536 8.03232L7.72962 8.02658L7.72236 8.02295C7.51953 7.92154 7.21133 7.81768 7 7.81768H4H3.99881C3.8995 7.81767 3.69479 7.81767 3.48759 7.91806C3.42609 7.92182 3.36956 7.95301 3.32 7.99018C3.26715 8.02982 3.21506 8.0819 3.16615 8.13081L3.16464 8.13232C3.1097 8.18727 3.05683 8.26721 3.01778 8.34532C2.97952 8.42184 2.95 8.50554 2.95 8.56768V8.56826V8.56885V8.56944V8.57004V8.57063V8.57123V8.57183V8.57244V8.57304V8.57365V8.57426V8.57487V8.57548V8.5761V8.57672V8.57734V8.57796V8.57858V8.57921V8.57984V8.58047V8.5811V8.58174V8.58238V8.58302V8.58366V8.5843V8.58495V8.58559V8.58624V8.5869V8.58755V8.5882V8.58886V8.58952V8.59018V8.59085V8.59151V8.59218V8.59285V8.59352V8.59419V8.59487V8.59555V8.59622V8.59691V8.59759V8.59827V8.59896V8.59965V8.60034V8.60103V8.60172V8.60242V8.60312V8.60382V8.60452V8.60522V8.60592V8.60663V8.60734V8.60805V8.60876V8.60947V8.61019V8.6109V8.61162V8.61234V8.61306V8.61379V8.61451V8.61524V8.61597V8.6167V8.61743V8.61816V8.6189V8.61963V8.62037V8.62111V8.62185V8.6226V8.62334V8.62409V8.62483V8.62558V8.62633V8.62709V8.62784V8.62859V8.62935V8.63011V8.63087V8.63163V8.63239V8.63315V8.63392V8.63469V8.63545V8.63622V8.63699V8.63777V8.63854V8.63932V8.64009V8.64087V8.64165V8.64243V8.64321V8.64399V8.64478V8.64556V8.64635V8.64714V8.64793V8.64872V8.64951V8.6503V8.6511V8.65189V8.65269V8.65349V8.65429V8.65509V8.65589V8.65669V8.6575V8.6583V8.65911V8.65991V8.66072V8.66153V8.66234V8.66316V8.66397V8.66478V8.6656V8.66641V8.66723V8.66805V8.66887V8.66969V8.67051V8.67133V8.67216V8.67298V8.6738V8.67463V8.67546V8.67629V8.67712V8.67795V8.67878V8.67961V8.68044V8.68128V8.68211V8.68295V8.68378V8.68462V8.68546V8.6863V8.68714V8.68798V8.68882V8.68966V8.6905V8.69135V8.69219V8.69304V8.69388V8.69473V8.69558V8.69643V8.69728V8.69813V8.69898V8.69983V8.70068V8.70153V8.70239V8.70324V8.7041V8.70495V8.70581V8.70666V8.70752V8.70838V8.70924V8.7101V8.71096V8.71182V8.71268V8.71354V8.7144V8.71526V8.71613V8.71699V8.71785V8.71872V8.71958V8.72045V8.72132V8.72218V8.72305V8.72392V8.72478V8.72565V8.72652V8.72739V8.72826V8.72913V8.73V8.73087V8.73174V8.73261V8.73349V8.73436V8.73523V8.7361V8.73698V8.73785V8.73873V8.7396V8.74047V8.74135V8.74222V8.7431V8.74397V8.74485V8.74573V8.7466V8.74748V8.74836V8.74923V8.75011V8.75099V8.75186V8.75274V8.75362V8.7545V8.75538V8.75625V8.75713V8.75801V8.75889V8.75977V8.76065V8.76152V8.7624V8.76328V8.76416V8.76504V8.76592V8.7668V8.76768V8.76855V8.76943V8.77031V8.77119V8.77207V8.77295V8.77383V8.77471V8.77558V8.77646V8.77734V8.77822V8.7791V8.77998V8.78085V8.78173V8.78261V8.78349V8.78436V8.78524V8.78612V8.787V8.78787V8.78875V8.78963V8.7905V8.79138V8.79225V8.79313V8.794V8.79488V8.79575V8.79663V8.7975V8.79837V8.79925V8.80012V8.80099V8.80186V8.80274V8.80361V8.80448V8.80535V8.80622V8.80709V8.80796V8.80883V8.8097V8.81057V8.81143V8.8123V8.81317V8.81404V8.8149V8.81577V8.81663V8.8175V8.81836V8.81923V8.82009V8.82095V8.82181V8.82267V8.82354V8.8244V8.82526V8.82611V8.82697V8.82783V8.82869V8.82954V8.8304V8.83126V8.83211V8.83297V8.83382V8.83467V8.83552V8.83637V8.83723V8.83808V8.83892V8.83977V8.84062V8.84147V8.84231V8.84316V8.844V8.84485V8.84569V8.84653V8.84737V8.84822V8.84906V8.84989V8.85073V8.85157V8.85241V8.85324V8.85408V8.85491V8.85574V8.85657V8.85741V8.85824V8.85907V8.85989V8.86072V8.86155V8.86237V8.8632V8.86402V8.86484V8.86566V8.86648V8.8673V8.86812V8.86894V8.86975V8.87057V8.87138V8.8722V8.87301V8.87382V8.87463V8.87544V8.87624V8.87705V8.87786V8.87866V8.87946V8.88026V8.88106V8.88186V8.88266V8.88346V8.88425V8.88505V8.88584V8.88663V8.88742V8.88821V8.889V8.88979V8.89057V8.89136V8.89214V8.89292V8.8937V8.89448V8.89526V8.89604V8.89681V8.89758V8.89836V8.89913V8.8999V8.90067V8.90143V8.9022V8.90296V8.90372V8.90448V8.90524V8.906V8.90676V8.90751V8.90827V8.90902V8.90977V8.91052V8.91127V8.91201V8.91276V8.9135V8.91424V8.91498V8.91572V8.91645V8.91719V8.91792V8.91865V8.91938V8.92011V8.92084V8.92156V8.92229V8.92301V8.92373V8.92445V8.92516V8.92588V8.92659V8.9273V8.92801V8.92872V8.92943V8.93013V8.93084V8.93154V8.93224V8.93293V8.93363V8.93432V8.93501V8.9357V8.93639V8.93708V8.93776V8.93845V8.93913V8.93981V8.94048V8.94116V8.94183V8.9425V8.94317V8.94384V8.9445V8.94517V8.94583V8.94649V8.94715V8.9478V8.94846V8.94911V8.94976V8.9504V8.95105V8.95169V8.95234V8.95297V8.95361V8.95425V8.95488V8.95551V8.95614V8.95677V8.95739V8.95801V8.95863V8.95925V8.95987V8.96048V8.96109V8.9617V8.96231V8.96292V8.96352V8.96412V8.96472V8.96531V8.96591V8.9665V8.96709V8.96768Z" fill="#D1ADAD" stroke="#F5F5F5" stroke-width="0.1"/>
</svg>
